PathFileType	4	(X/Y/Z)	Run_300 02
DataRate	CameraRate	NumFrames	NumMarkers	Units	OrigDataRate	OrigDataStartFrame	OrigNumFrames
100	100	8	42	mm	100	5	128
Frame#	Time	RASI			LPSI			RPSI			RTH1			RTH2			RTH3			LTH1			LTH2			LTH3			RTB1			RTB2			RTB3			LTB1			LTB2			LTB3			RCAL			RTOE			RMT5			LCAL			LTOE			LMT5			LACR			RACR			CLAV			C7			RUA1			RUA2			RUA3			RLEL			RMEL			LUA1			LUA2			LUA3			LLEL			LMEL			RFAsuperior			RFAradius			RFAulna			LFAsuperior			LFAradius			LFAulna			LASI		
		X1	Y1	Z1	X2	Y2	Z2	X3	Y3	Z3	X4	Y4	Z4	X5	Y5	Z5	X6	Y6	Z6	X7	Y7	Z7	X8	Y8	Z8	X9	Y9	Z9	X10	Y10	Z10	X11	Y11	Z11	X12	Y12	Z12	X13	Y13	Z13	X14	Y14	Z14	X15	Y15	Z15	X16	Y16	Z16	X17	Y17	Z17	X18	Y18	Z18	X19	Y19	Z19	X20	Y20	Z20	X21	Y21	Z21	X22	Y22	Z22	X23	Y23	Z23	X24	Y24	Z24	X25	Y25	Z25	X26	Y26	Z26	X27	Y27	Z27	X28	Y28	Z28	X29	Y29	Z29	X30	Y30	Z30	X31	Y31	Z31	X32	Y32	Z32	X33	Y33	Z33	X34	Y34	Z34	X35	Y35	Z35	X36	Y36	Z36	X37	Y37	Z37	X38	Y38	Z38	X39	Y39	Z39	X40	Y40	Z40	X41	Y41	Z41	X42	Y42	Z42	

5	  0.050000	994.533721	1061.563888	-225.083521	819.069312	1144.740237	-390.017544	832.750687	1134.463721	-277.453034	897.879237	950.257948	-174.367549	796.108756	829.060749	-191.065480	778.799300	676.178197	-213.997668	933.470223	967.881380	-530.801498	936.252292	805.075854	-478.047777	1048.760836	714.048697	-477.606784	705.941486	426.034301	-290.783851	616.001509	423.818637	-222.208021	584.797722	280.157083	-307.601061	1138.278044	503.844179	-424.394852	1024.109131	416.770307	-460.423979	1064.332788	299.388135	-406.074212	421.939852	251.041209	-301.689607	572.571074	 73.302621	-353.753311	525.994276	 76.091643	-255.365406	917.357809	190.173238	-356.747980	1148.135310	139.918675	-388.433758	1079.380995	100.494745	-466.431663	925.793128	1574.875210	-487.517890	1017.526413	1540.261262	-181.919108	1036.345695	1513.176130	-322.028259	913.161961	1582.756383	-323.485755	937.934108	1436.524025	-93.926599	989.185778	1375.836777	-90.328142	943.562867	1294.514486	-35.553993	926.829120	1228.271513	-11.092389	897.447383	1210.008224	-96.004348	797.971993	1518.819910	-509.741796	793.390558	1442.887675	-550.526366	699.925719	1410.479674	-550.509178	656.738498	1355.112257	-565.223565	660.810806	1330.110608	-478.320045	1021.753347	1216.757769	-62.217572	1116.263132	1256.852327	-209.251914	1141.301318	1204.686174	-170.608174	707.240974	1288.945671	-578.275097	886.523450	1242.574181	-535.785452	855.123160	1185.554232	-566.338586	968.598286	1083.091369	-474.348338	
6	  0.060000	997.102998	1065.244308	-225.998302	820.209484	1148.228242	-389.308668	834.894052	1138.282103	-277.123471	900.180948	954.956812	-173.723199	795.642926	836.181581	-190.884347	774.216886	684.175884	-213.394768	933.234679	970.861327	-531.492829	931.939389	806.932882	-477.256397	1043.168282	713.735429	-476.562239	696.653401	434.677360	-288.605757	605.699363	434.538881	-220.793001	573.598573	289.866974	-304.671116	1141.248559	505.463636	-421.900888	1035.970500	408.694203	-458.900017	1084.928505	295.958602	-402.542151	414.106463	268.353775	-298.286921	550.059890	 78.221216	-352.615375	504.831574	 84.431138	-254.143385	947.609793	174.776319	-354.659568	1182.114972	144.332947	-379.902691	1118.962921	 96.734240	-458.115906	926.087163	1579.513766	-487.888368	1019.501610	1544.684434	-183.209361	1037.237883	1517.219444	-323.292694	914.265988	1586.736263	-323.633553	939.968832	1441.858117	-94.357709	991.169045	1380.860650	-91.062825	945.614294	1300.290902	-35.181057	928.829037	1233.909903	-10.514784	898.219458	1215.693229	-95.264310	797.840214	1524.310736	-508.702852	792.635744	1447.909765	-549.109954	699.097096	1415.251077	-547.538617	655.897575	1359.581719	-561.363230	661.140335	1334.809894	-474.126053	1022.583138	1223.621740	-63.465129	1114.020053	1264.811929	-211.678899	1140.993098	1212.422258	-174.019002	706.744556	1294.134738	-575.352224	887.376081	1249.917683	-535.958031	856.178940	1192.584875	-566.229111	968.930954	1087.387801	-474.752920	
7	  0.070000	999.405722	1068.270334	-227.111982	821.282811	1150.953928	-388.847721	836.769816	1141.511753	-276.905994	902.388137	959.085945	-172.967478	795.682243	842.255014	-191.066524	771.267226	690.836903	-212.925767	933.000507	972.633874	-531.821885	928.161966	808.013254	-476.422854	1037.555388	712.568134	-475.708584	688.913483	441.900864	-286.881609	597.545227	444.135207	-219.272431	562.936439	299.211875	-302.003582	1143.131686	506.313606	-419.670910	1046.774840	400.853584	-457.332959	1103.890155	292.875959	-399.051494	406.601843	285.386718	-294.254891	527.600065	 84.245142	-351.229125	483.627984	 93.132455	-253.097440	976.673148	160.736464	-352.616196	1213.538435	149.951993	-371.389978	1156.699866	 93.987199	-448.993529	926.328692	1583.377251	-488.110000	1021.269093	1548.351539	-184.460081	1038.160715	1520.547905	-324.527505	915.305697	1589.984163	-323.860824	941.903017	1446.458629	-94.753841	993.004814	1385.162440	-91.677768	947.427579	1305.333781	-34.753067	930.544854	1238.902829	 -9.812395	898.658827	1220.684237	-94.240984	797.730095	1528.806326	-507.901400	792.115853	1451.900480	-547.742536	698.570041	1418.900411	-544.759364	655.406918	1362.928889	-557.696275	662.030267	1338.135700	-470.416063	1023.225108	1229.106344	-64.437955	1111.785891	1270.993785	-213.490181	1140.112636	1218.112542	-177.013298	706.627891	1298.228311	-572.608180	888.499977	1256.151185	-536.097381	857.565765	1198.541312	-566.203213	969.330246	1090.624302	-475.110400	
8	  0.080000	1001.282650	1070.447053	-228.321952	822.248449	1152.530606	-388.766993	838.233739	1143.803954	-276.877600	904.456600	962.211473	-172.278380	796.631652	846.402894	-191.559610	770.991306	695.111221	-212.623109	932.877169	972.815952	-531.583027	925.225939	808.092223	-475.512812	1031.916614	710.184226	-475.122745	683.438006	446.934780	-285.869594	592.636615	451.972974	-217.522021	552.932422	308.091548	-299.685059	1143.431814	505.994073	-417.903471	1055.593960	393.482751	-455.524730	1120.162630	290.308033	-395.856756	399.138826	301.952933	-289.386139	505.368100	 92.250375	-349.667762	462.628697	102.754232	-252.159546	1003.453776	148.835084	-350.706772	1240.598447	157.254493	-362.997506	1191.072686	 92.939364	-438.977595	926.517186	1586.000196	-488.239059	1022.718450	1550.856367	-185.628776	1039.109347	1522.802405	-325.689619	916.241897	1592.131220	-324.250015	943.573711	1449.869117	-95.148928	994.504030	1388.343972	-92.138909	948.808978	1309.233441	-34.265029	931.762526	1242.864517	 -8.970536	898.598079	1224.580656	-92.883293	797.660930	1531.750355	-507.435374	791.941454	1454.296487	-546.458557	698.492920	1420.838823	-542.300171	655.446606	1364.530834	-554.354804	663.663863	1339.442492	-467.365290	1023.522089	1232.456098	-65.003199	1109.666106	1274.163616	-214.715488	1138.518428	1220.597050	-179.392867	707.087988	1300.630982	-570.144551	890.044574	1260.667585	-536.221673	859.444441	1202.833894	-566.317721	969.816550	1092.417530	-475.248315	
9	  0.090000	1002.702160	1071.983633	-229.289141	823.074122	1152.979842	-389.040601	839.271219	1145.069228	-277.058090	906.429228	964.066838	-172.019075	798.724220	848.100407	-191.968430	773.666158	696.455467	-212.394762	933.032014	971.899577	-530.809834	923.114852	807.439436	-474.597638	1026.257009	706.724692	-474.727480	680.051245	449.783231	-285.488148	590.826524	458.077336	-215.449769	543.365137	316.708654	-297.495690	1142.340879	504.571704	-416.603822	1061.874679	386.777250	-453.213481	1133.341896	288.201188	-393.237817	391.091901	318.082198	-283.862428	483.893203	102.742800	-348.287699	442.538165	113.897068	-251.055104	1026.949846	139.192677	-348.946810	1262.473341	165.654148	-355.020961	1220.803909	 93.633078	-428.814642	926.720832	1587.265816	-488.516578	1023.838661	1552.179260	-186.687975	1040.034848	1524.002247	-326.730718	917.062421	1593.197678	-324.879194	944.757328	1451.991349	-95.640810	995.455711	1390.369130	-92.482536	949.593093	1311.922460	-33.790992	932.312390	1245.706966	 -8.098758	898.013958	1227.334161	-91.399398	797.672866	1533.061968	-507.267571	792.108652	1455.063483	-545.358163	698.849156	1421.045977	-540.214212	656.014982	1364.319205	-551.414208	665.833642	1338.870748	-464.827070	1023.336738	1233.609117	-65.161196	1107.848068	1273.866618	-215.759434	1136.482307	1219.738438	-181.043825	708.128328	1301.280081	-567.999730	892.027397	1263.404619	-536.396483	861.802176	1205.390715	-566.586197	970.415707	1093.103387	-475.045772	
10	  0.100000	1003.704289	1073.054534	-229.793965	823.715644	1152.495021	-389.535300	839.925553	1145.324115	-277.408054	908.407620	964.530777	-172.364735	801.974146	847.312359	-192.013149	778.982707	694.921903	-212.136306	933.547751	970.597648	-529.730420	921.554559	806.330909	-473.859887	1020.653118	702.509655	-474.344539	678.268649	450.879390	-285.334591	591.319893	462.933627	-213.091119	534.151296	325.336716	-294.990074	1140.398556	502.401303	-415.463889	1065.688313	380.837548	-450.312479	1143.378241	286.366207	-391.085302	382.375375	334.014074	-277.927102	464.034637	115.692644	-347.316685	424.304503	126.763070	-249.559210	1046.254279	131.573640	-347.039253	1279.086590	173.705223	-347.948746	1244.646897	 95.433995	-419.674957	927.041731	1587.230823	-489.160179	1024.652002	1552.470844	-187.632354	1040.867950	1524.294471	-327.614544	917.765272	1593.341131	-325.795543	945.266031	1452.975624	-96.305721	995.708758	1391.362990	-92.746310	949.618923	1313.478012	-33.466015	932.012483	1247.501075	 -7.359742	896.893384	1229.080097	-90.113622	797.840644	1532.865991	-507.346284	792.593896	1454.408788	-544.654229	699.559893	1419.730519	-538.514246	657.039852	1362.481636	-548.939544	668.243139	1336.839408	-462.600884	1022.532901	1232.822986	-64.934395	1106.479079	1270.289677	-216.690710	1134.312604	1215.957560	-181.706563	709.675674	1300.327936	-566.217629	894.404168	1264.522934	-536.680037	864.567388	1206.345553	-566.989050	971.215232	1093.198082	-474.698632	
11	  0.110000	1004.346396	1073.507724	-229.950723	824.139703	1151.197229	-390.099247	840.254014	1144.539965	-277.841922	910.477905	963.599054	-173.133487	806.191924	844.404480	-191.817647	786.294367	691.022796	-211.868696	934.335962	969.152493	-528.639634	920.191057	804.722188	-473.401283	1015.393919	697.791619	-473.800439	677.871215	450.663725	-284.898110	593.420390	467.132742	-210.637535	525.755481	334.070274	-291.824541	1138.102658	499.801417	-413.922758	1067.643530	375.595068	-447.022120	1150.297111	284.508814	-388.823678	373.924080	350.055020	-271.711290	446.521193	130.482168	-346.469274	408.538139	140.999436	-247.629810	1060.594026	125.610162	-344.362384	1290.674266	179.627058	-342.246362	1261.489445	 97.289370	-412.651000	927.556207	1585.942047	-490.202151	1025.167910	1551.828052	-188.457587	1041.560103	1523.709042	-328.330928	918.349587	1592.614092	-326.984207	945.047534	1453.025486	-97.121197	995.221322	1391.415560	-92.914599	948.742254	1313.959179	-33.418350	930.661931	1248.328700	 -6.880681	895.167637	1229.921709	-89.312384	798.242338	1531.231917	-507.714026	793.409615	1452.452197	-544.531392	700.588013	1417.009262	-537.219442	658.486792	1359.148750	-547.017563	670.785915	1333.545090	-460.686166	1020.953910	1230.317012	-64.296300	1105.543072	1263.872362	-217.073581	1132.041344	1209.717486	-181.028184	711.687568	1297.849346	-564.878635	897.143350	1264.098985	-537.082039	867.713234	1205.750576	-567.504855	972.274226	1092.810071	-474.604448	
12	  0.120000	1004.702657	1072.991323	-230.020252	824.365599	1149.064326	-390.626912	840.342025	1142.621156	-278.259055	912.669649	961.355987	-174.005079	811.072743	839.848479	-191.728581	794.806253	685.446314	-211.719912	935.166291	967.196389	-527.776672	918.800972	802.349411	-473.118769	1011.014514	692.753705	-473.013721	679.023693	449.393444	-283.863010	596.882074	471.091864	-208.351259	519.115621	342.779793	-288.056359	1135.762087	496.820888	-411.462929	1068.435029	370.792468	-443.670931	1154.126277	282.202744	-385.802383	367.265211	366.403733	-265.349107	431.571703	146.171360	-345.057865	395.159614	156.038115	-245.292768	1069.415169	120.702121	-340.447322	1297.443451	182.070934	-337.994281	1270.880045	 98.208158	-408.281883	928.276622	1583.396537	-491.514177	1025.394329	1550.236314	-189.144359	1042.111658	1522.126908	-328.895691	918.820784	1590.930950	-328.359041	944.175233	1452.244396	-97.991281	994.026335	1390.551534	-92.900287	946.885558	1313.389359	-33.687929	928.117485	1248.227306	 -6.694499	892.770896	1229.852040	-89.125083	798.907131	1528.125054	-508.493532	794.577500	1449.129022	-544.936646	701.956963	1412.849988	-536.379178	660.374073	1354.316867	-545.739133	673.545367	1328.897332	-459.275994	1018.431463	1226.218281	-63.198644	1104.850711	1255.012413	-216.434520	1129.446431	1201.325823	-178.828355	714.166067	1293.805646	-564.056718	900.247196	1262.083826	-537.576327	871.264845	1203.544724	-568.117688	973.462422	1091.519839	-474.894192	
